<svg id="visual" viewBox="0 0 960 540" width="960" height="540" xmlns="http://www.w3.org/2000/svg"
    xmlns:xlink="http://www.w3.org/1999/xlink" version="1.1">
    <rect width="960" height="540" fill="#ffffff"></rect>
    <g>
        <g transform="translate(332 301)">
            <path
                d="M81.7 -27C92.1 5.6 77.4 45.9 47 69.1C16.6 92.2 -29.5 98.1 -57.7 78C-86 57.8 -96.4 11.5 -83.8 -24C-71.2 -59.6 -35.6 -84.4 0 -84.4C35.6 -84.4 71.2 -59.6 81.7 -27Z"
                stroke="#c7e6ff" fill="none" stroke-width="20"></path>
        </g>
        <g transform="translate(885 487)">
            <path
                d="M48.4 -17.6C53.7 0.8 43 22.6 26.3 34.2C9.7 45.8 -12.8 47.2 -26.8 37.1C-40.7 26.9 -46.1 5.1 -40.2 -14.1C-34.3 -33.2 -17.2 -49.7 2.2 -50.4C21.5 -51.1 43 -36 48.4 -17.6Z"
                stroke="#c7e6ff" fill="none" stroke-width="20"></path>
        </g>
        <g transform="translate(263 9)">
            <path
                d="M46.1 -13.7C53.1 6.7 47.7 32.4 30.7 45.4C13.8 58.5 -14.6 58.9 -33.6 45.3C-52.6 31.8 -62.1 4.3 -54.9 -16.3C-47.7 -36.8 -23.9 -50.4 -2.2 -49.7C19.5 -49 39 -34 46.1 -13.7Z"
                stroke="#c7e6ff" fill="none" stroke-width="20"></path>
        </g>
        <g transform="translate(58 410)">
            <path
                d="M45.7 -16.4C51.1 1.8 41.8 23.3 26.1 34.3C10.4 45.3 -11.7 45.9 -27.8 35C-43.9 24.1 -54.1 1.6 -48.5 -17C-42.8 -35.5 -21.4 -50.2 -0.6 -50C20.1 -49.8 40.3 -34.7 45.7 -16.4Z"
                stroke="#c7e6ff" fill="none" stroke-width="20"></path>
        </g>
        <g transform="translate(684 217)">
            <path
                d="M52.1 -16.7C60.2 7.9 54.3 37.3 36.3 50.6C18.2 63.8 -12 60.9 -33.2 45.5C-54.4 30.2 -66.6 2.3 -59.6 -20.9C-52.6 -44.2 -26.3 -62.7 -2.1 -62C22 -61.3 44.1 -41.4 52.1 -16.7Z"
                stroke="#c7e6ff" fill="none" stroke-width="20"></path>
        </g>
        <g transform="translate(890 37)">
            <path
                d="M41 -13.3C46.6 3.8 40 24.8 25.2 35.9C10.4 46.9 -12.5 47.9 -27.3 37.2C-42.1 26.6 -48.7 4.3 -42.8 -13.3C-36.9 -30.8 -18.5 -43.6 -0.4 -43.5C17.7 -43.4 35.5 -30.3 41 -13.3Z"
                stroke="#c7e6ff" fill="none" stroke-width="20"></path>
        </g>
    </g>
</svg>