<svg id="visual" viewBox="0 0 900 675" width="900" height="675" xmlns="http://www.w3.org/2000/svg" xmlns:xlink="http://www.w3.org/1999/xlink" version="1.1"><path d="M0 69L25 64.5C50 60 100 51 150 45.3C200 39.7 250 37.3 300 38.3C350 39.3 400 43.7 450 47C500 50.3 550 52.7 600 55C650 57.3 700 59.7 750 57.5C800 55.3 850 48.7 875 45.3L900 42L900 0L875 0C850 0 800 0 750 0C700 0 650 0 600 0C550 0 500 0 450 0C400 0 350 0 300 0C250 0 200 0 150 0C100 0 50 0 25 0L0 0Z" fill="#ffffff"></path><path d="M0 116L25 109.2C50 102.3 100 88.7 150 83C200 77.3 250 79.7 300 84.2C350 88.7 400 95.3 450 97.7C500 100 550 98 600 99.2C650 100.3 700 104.7 750 104.7C800 104.7 850 100.3 875 98.2L900 96L900 40L875 43.3C850 46.7 800 53.3 750 55.5C700 57.7 650 55.3 600 53C550 50.7 500 48.3 450 45C400 41.7 350 37.3 300 36.3C250 35.3 200 37.7 150 43.3C100 49 50 58 25 62.5L0 67Z" fill="#ffdfe6"></path><path d="M0 231L25 233.2C50 235.3 100 239.7 150 230.7C200 221.7 250 199.3 300 199.3C350 199.3 400 221.7 450 220.5C500 219.3 550 194.7 600 199.2C650 203.7 700 237.3 750 249.7C800 262 850 253 875 248.5L900 244L900 94L875 96.2C850 98.3 800 102.7 750 102.7C700 102.7 650 98.3 600 97.2C550 96 500 98 450 95.7C400 93.3 350 86.7 300 82.2C250 77.7 200 75.3 150 81C100 86.7 50 100.3 25 107.2L0 114Z" fill="#ffbfcf"></path><path d="M0 291L25 300C50 309 100 327 150 322.5C200 318 250 291 300 283.2C350 275.3 400 286.7 450 283.3C500 280 550 262 600 269.8C650 277.7 700 311.3 750 320.3C800 329.3 850 313.7 875 305.8L900 298L900 242L875 246.5C850 251 800 260 750 247.7C700 235.3 650 201.7 600 197.2C550 192.7 500 217.3 450 218.5C400 219.7 350 197.3 300 197.3C250 197.3 200 219.7 150 228.7C100 237.7 50 233.3 25 231.2L0 229Z" fill="#ff9eb8"></path><path d="M0 399L25 396.8C50 394.7 100 390.3 150 387C200 383.7 250 381.3 300 389.2C350 397 400 415 450 407.2C500 399.3 550 365.7 600 360C650 354.3 700 376.7 750 381.2C800 385.7 850 372.3 875 365.7L900 359L900 296L875 303.8C850 311.7 800 327.3 750 318.3C700 309.3 650 275.7 600 267.8C550 260 500 278 450 281.3C400 284.7 350 273.3 300 281.2C250 289 200 316 150 320.5C100 325 50 307 25 298L0 289Z" fill="#ff97b3"></path><path d="M0 534L25 535.2C50 536.3 100 538.7 150 538.7C200 538.7 250 536.3 300 540.8C350 545.3 400 556.7 450 556.7C500 556.7 550 545.3 600 537.5C650 529.7 700 525.3 750 525.3C800 525.3 850 529.7 875 531.8L900 534L900 357L875 363.7C850 370.3 800 383.7 750 379.2C700 374.7 650 352.3 600 358C550 363.7 500 397.3 450 405.2C400 413 350 395 300 387.2C250 379.3 200 381.7 150 385C100 388.3 50 392.7 25 394.8L0 397Z" fill="#ff9eb8"></path><path d="M0 595L25 595C50 595 100 595 150 595C200 595 250 595 300 596.2C350 597.3 400 599.7 450 599.7C500 599.7 550 597.3 600 592.8C650 588.3 700 581.7 750 576C800 570.3 850 565.7 875 563.3L900 561L900 532L875 529.8C850 527.7 800 523.3 750 523.3C700 523.3 650 527.7 600 535.5C550 543.3 500 554.7 450 554.7C400 554.7 350 543.3 300 538.8C250 534.3 200 536.7 150 536.7C100 536.7 50 534.3 25 533.2L0 532Z" fill="#ffbfcf"></path><path d="M0 649L25 644.5C50 640 100 631 150 628.8C200 626.7 250 631.3 300 634.7C350 638 400 640 450 642.2C500 644.3 550 646.7 600 643.3C650 640 700 631 750 625.3C800 619.7 850 617.3 875 616.2L900 615L900 559L875 561.3C850 563.7 800 568.3 750 574C700 579.7 650 586.3 600 590.8C550 595.3 500 597.7 450 597.7C400 597.7 350 595.3 300 594.2C250 593 200 593 150 593C100 593 50 593 25 593L0 593Z" fill="#ffdfe6"></path><path d="M0 676L25 676C50 676 100 676 150 676C200 676 250 676 300 676C350 676 400 676 450 676C500 676 550 676 600 676C650 676 700 676 750 676C800 676 850 676 875 676L900 676L900 613L875 614.2C850 615.3 800 617.7 750 623.3C700 629 650 638 600 641.3C550 644.7 500 642.3 450 640.2C400 638 350 636 300 632.7C250 629.3 200 624.7 150 626.8C100 629 50 638 25 642.5L0 647Z" fill="#ffffff"></path></svg>