<svg id="visual" viewBox="0 0 900 600" width="900" height="600" xmlns="http://www.w3.org/2000/svg"
    xmlns:xlink="http://www.w3.org/1999/xlink" version="1.1">

    <path
        d="M0 259L13.7 271C27.3 283 54.7 307 82 303C109.3 299 136.7 267 163.8 253C191 239 218 243 245.2 249C272.3 255 299.7 263 327 279C354.3 295 381.7 319 409 304C436.3 289 463.7 235 491 218C518.3 201 545.7 221 573 225C600.3 229 627.7 217 654.8 230C682 243 709 281 736.2 278C763.3 275 790.7 231 818 218C845.3 205 872.7 223 886.3 232L900 241L900 113L886.3 107C872.7 101 845.3 89 818 81C790.7 73 763.3 69 736.2 72C709 75 682 85 654.8 86C627.7 87 600.3 79 573 76C545.7 73 518.3 75 491 84C463.7 93 436.3 109 409 106C381.7 103 354.3 81 327 81C299.7 81 272.3 103 245.2 100C218 97 191 69 163.8 64C136.7 59 109.3 77 82 90C54.7 103 27.3 111 13.7 115L0 119Z"
        fill="#d0e9ff"></path>
    <path
        d="M0 433L13.7 435C27.3 437 54.7 441 82 442C109.3 443 136.7 441 163.8 435C191 429 218 419 245.2 416C272.3 413 299.7 417 327 424C354.3 431 381.7 441 409 430C436.3 419 463.7 387 491 385C518.3 383 545.7 411 573 420C600.3 429 627.7 419 654.8 416C682 413 709 417 736.2 427C763.3 437 790.7 453 818 455C845.3 457 872.7 445 886.3 439L900 433L900 239L886.3 230C872.7 221 845.3 203 818 216C790.7 229 763.3 273 736.2 276C709 279 682 241 654.8 228C627.7 215 600.3 227 573 223C545.7 219 518.3 199 491 216C463.7 233 436.3 287 409 302C381.7 317 354.3 293 327 277C299.7 261 272.3 253 245.2 247C218 241 191 237 163.8 251C136.7 265 109.3 297 82 301C54.7 305 27.3 281 13.7 269L0 257Z"
        fill="#b2dcff"></path>
    <path
        d="M0 535L13.7 534C27.3 533 54.7 531 82 529C109.3 527 136.7 525 163.8 528C191 531 218 539 245.2 536C272.3 533 299.7 519 327 517C354.3 515 381.7 525 409 526C436.3 527 463.7 519 491 519C518.3 519 545.7 527 573 532C600.3 537 627.7 539 654.8 533C682 527 709 513 736.2 510C763.3 507 790.7 515 818 523C845.3 531 872.7 539 886.3 543L900 547L900 431L886.3 437C872.7 443 845.3 455 818 453C790.7 451 763.3 435 736.2 425C709 415 682 411 654.8 414C627.7 417 600.3 427 573 418C545.7 409 518.3 381 491 383C463.7 385 436.3 417 409 428C381.7 439 354.3 429 327 422C299.7 415 272.3 411 245.2 414C218 417 191 427 163.8 433C136.7 439 109.3 441 82 440C54.7 439 27.3 435 13.7 433L0 431Z"
        fill="#d0e9ff"></path>

</svg>