<svg id="visual" viewBox="0 0 900 600" width="900" height="600" xmlns="http://www.w3.org/2000/svg" xmlns:xlink="http://www.w3.org/1999/xlink" version="1.1"><rect x="0" y="0" width="900" height="600" fill="#ffffff"></rect><path d="M0 185L21.5 190.5C43 196 86 207 128.8 217C171.7 227 214.3 236 257.2 244.3C300 252.7 343 260.3 385.8 253.2C428.7 246 471.3 224 514.2 211.5C557 199 600 196 642.8 196.2C685.7 196.3 728.3 199.7 771.2 199.7C814 199.7 857 196.3 878.5 194.7L900 193L900 601L878.5 601C857 601 814 601 771.2 601C728.3 601 685.7 601 642.8 601C600 601 557 601 514.2 601C471.3 601 428.7 601 385.8 601C343 601 300 601 257.2 601C214.3 601 171.7 601 128.8 601C86 601 43 601 21.5 601L0 601Z" fill="#ffe1df"></path><path d="M0 253L21.5 247.5C43 242 86 231 128.8 231.2C171.7 231.3 214.3 242.7 257.2 238.2C300 233.7 343 213.3 385.8 225C428.7 236.7 471.3 280.3 514.2 283.5C557 286.7 600 249.3 642.8 228.5C685.7 207.7 728.3 203.3 771.2 206.2C814 209 857 219 878.5 224L900 229L900 601L878.5 601C857 601 814 601 771.2 601C728.3 601 685.7 601 642.8 601C600 601 557 601 514.2 601C471.3 601 428.7 601 385.8 601C343 601 300 601 257.2 601C214.3 601 171.7 601 128.8 601C86 601 43 601 21.5 601L0 601Z" fill="#ffd4d5"></path><path d="M0 249L21.5 272.3C43 295.7 86 342.3 128.8 366.7C171.7 391 214.3 393 257.2 392.7C300 392.3 343 389.7 385.8 382C428.7 374.3 471.3 361.7 514.2 340.7C557 319.7 600 290.3 642.8 278.3C685.7 266.3 728.3 271.7 771.2 284.5C814 297.3 857 317.7 878.5 327.8L900 338L900 601L878.5 601C857 601 814 601 771.2 601C728.3 601 685.7 601 642.8 601C600 601 557 601 514.2 601C471.3 601 428.7 601 385.8 601C343 601 300 601 257.2 601C214.3 601 171.7 601 128.8 601C86 601 43 601 21.5 601L0 601Z" fill="#ffc7ce"></path><path d="M0 332L21.5 341.8C43 351.7 86 371.3 128.8 376.8C171.7 382.3 214.3 373.7 257.2 371.2C300 368.7 343 372.3 385.8 365.2C428.7 358 471.3 340 514.2 335.3C557 330.7 600 339.3 642.8 340.2C685.7 341 728.3 334 771.2 340.5C814 347 857 367 878.5 377L900 387L900 601L878.5 601C857 601 814 601 771.2 601C728.3 601 685.7 601 642.8 601C600 601 557 601 514.2 601C471.3 601 428.7 601 385.8 601C343 601 300 601 257.2 601C214.3 601 171.7 601 128.8 601C86 601 43 601 21.5 601L0 601Z" fill="#ffbac9"></path><path d="M0 414L21.5 414.7C43 415.3 86 416.7 128.8 424.3C171.7 432 214.3 446 257.2 449.3C300 452.7 343 445.3 385.8 438.7C428.7 432 471.3 426 514.2 428C557 430 600 440 642.8 436.8C685.7 433.7 728.3 417.3 771.2 408.3C814 399.3 857 397.7 878.5 396.8L900 396L900 601L878.5 601C857 601 814 601 771.2 601C728.3 601 685.7 601 642.8 601C600 601 557 601 514.2 601C471.3 601 428.7 601 385.8 601C343 601 300 601 257.2 601C214.3 601 171.7 601 128.8 601C86 601 43 601 21.5 601L0 601Z" fill="#ffadc7"></path><path d="M0 553L21.5 549.2C43 545.3 86 537.7 128.8 528.7C171.7 519.7 214.3 509.3 257.2 507C300 504.7 343 510.3 385.8 510C428.7 509.7 471.3 503.3 514.2 503.2C557 503 600 509 642.8 516.2C685.7 523.3 728.3 531.7 771.2 531.5C814 531.3 857 522.7 878.5 518.3L900 514L900 601L878.5 601C857 601 814 601 771.2 601C728.3 601 685.7 601 642.8 601C600 601 557 601 514.2 601C471.3 601 428.7 601 385.8 601C343 601 300 601 257.2 601C214.3 601 171.7 601 128.8 601C86 601 43 601 21.5 601L0 601Z" fill="#ffa0c8"></path></svg>