<svg id="visual" viewBox="0 0 1080 400" width="1080" height="400" xmlns="http://www.w3.org/2000/svg" xmlns:xlink="http://www.w3.org/1999/xlink" version="1.1"><path d="M0 57L18 57C36 57 72 57 108 53.7C144 50.3 180 43.7 216 43C252 42.3 288 47.7 324 47C360 46.3 396 39.7 432 39C468 38.3 504 43.7 540 41C576 38.3 612 27.7 648 23.7C684 19.7 720 22.3 756 23C792 23.7 828 22.3 864 27C900 31.7 936 42.3 972 45.7C1008 49 1044 45 1062 43L1080 41L1080 0L1062 0C1044 0 1008 0 972 0C936 0 900 0 864 0C828 0 792 0 756 0C720 0 684 0 648 0C612 0 576 0 540 0C504 0 468 0 432 0C396 0 360 0 324 0C288 0 252 0 216 0C180 0 144 0 108 0C72 0 36 0 18 0L0 0Z" fill="#ffffff"></path><path d="M0 89L18 88.3C36 87.7 72 86.3 108 84.3C144 82.3 180 79.7 216 82.3C252 85 288 93 324 93C360 93 396 85 432 83.7C468 82.3 504 87.7 540 85C576 82.3 612 71.7 648 64.3C684 57 720 53 756 51.7C792 50.3 828 51.7 864 61C900 70.3 936 87.7 972 91.7C1008 95.7 1044 86.3 1062 81.7L1080 77L1080 39L1062 41C1044 43 1008 47 972 43.7C936 40.3 900 29.7 864 25C828 20.3 792 21.7 756 21C720 20.3 684 17.7 648 21.7C612 25.7 576 36.3 540 39C504 41.7 468 36.3 432 37C396 37.7 360 44.3 324 45C288 45.7 252 40.3 216 41C180 41.7 144 48.3 108 51.7C72 55 36 55 18 55L0 55Z" fill="#d8f4cb"></path><path d="M0 133L18 132.3C36 131.7 72 130.3 108 129.7C144 129 180 129 216 133C252 137 288 145 324 144.3C360 143.7 396 134.3 432 134.3C468 134.3 504 143.7 540 143.7C576 143.7 612 134.3 648 126.3C684 118.3 720 111.7 756 110.3C792 109 828 113 864 123.7C900 134.3 936 151.7 972 148.3C1008 145 1044 121 1062 109L1080 97L1080 75L1062 79.7C1044 84.3 1008 93.7 972 89.7C936 85.7 900 68.3 864 59C828 49.7 792 48.3 756 49.7C720 51 684 55 648 62.3C612 69.7 576 80.3 540 83C504 85.7 468 80.3 432 81.7C396 83 360 91 324 91C288 91 252 83 216 80.3C180 77.7 144 80.3 108 82.3C72 84.3 36 85.7 18 86.3L0 87Z" fill="#afe898"></path><path d="M0 281L18 274.3C36 267.7 72 254.3 108 239C144 223.7 180 206.3 216 214.3C252 222.3 288 255.7 324 259C360 262.3 396 235.7 432 225C468 214.3 504 219.7 540 219C576 218.3 612 211.7 648 202.3C684 193 720 181 756 188.3C792 195.7 828 222.3 864 230.3C900 238.3 936 227.7 972 211C1008 194.3 1044 171.7 1062 160.3L1080 149L1080 95L1062 107C1044 119 1008 143 972 146.3C936 149.7 900 132.3 864 121.7C828 111 792 107 756 108.3C720 109.7 684 116.3 648 124.3C612 132.3 576 141.7 540 141.7C504 141.7 468 132.3 432 132.3C396 132.3 360 141.7 324 142.3C288 143 252 135 216 131C180 127 144 127 108 127.7C72 128.3 36 129.7 18 130.3L0 131Z" fill="#9ee383"></path><path d="M0 313L18 309C36 305 72 297 108 289C144 281 180 273 216 277C252 281 288 297 324 297C360 297 396 281 432 273.7C468 266.3 504 267.7 540 271.7C576 275.7 612 282.3 648 271.7C684 261 720 233 756 235C792 237 828 269 864 279C900 289 936 277 972 263.7C1008 250.3 1044 235.7 1062 228.3L1080 221L1080 147L1062 158.3C1044 169.7 1008 192.3 972 209C936 225.7 900 236.3 864 228.3C828 220.3 792 193.7 756 186.3C720 179 684 191 648 200.3C612 209.7 576 216.3 540 217C504 217.7 468 212.3 432 223C396 233.7 360 260.3 324 257C288 253.7 252 220.3 216 212.3C180 204.3 144 221.7 108 237C72 252.3 36 265.7 18 272.3L0 279Z" fill="#afe898"></path><path d="M0 385L18 381C36 377 72 369 108 368.3C144 367.7 180 374.3 216 375C252 375.7 288 370.3 324 366.3C360 362.3 396 359.7 432 359.7C468 359.7 504 362.3 540 363C576 363.7 612 362.3 648 361C684 359.7 720 358.3 756 359.7C792 361 828 365 864 369C900 373 936 377 972 375.7C1008 374.3 1044 367.7 1062 364.3L1080 361L1080 219L1062 226.3C1044 233.7 1008 248.3 972 261.7C936 275 900 287 864 277C828 267 792 235 756 233C720 231 684 259 648 269.7C612 280.3 576 273.7 540 269.7C504 265.7 468 264.3 432 271.7C396 279 360 295 324 295C288 295 252 279 216 275C180 271 144 279 108 287C72 295 36 303 18 307L0 311Z" fill="#d8f4cb"></path><path d="M0 401L18 401C36 401 72 401 108 401C144 401 180 401 216 401C252 401 288 401 324 401C360 401 396 401 432 401C468 401 504 401 540 401C576 401 612 401 648 401C684 401 720 401 756 401C792 401 828 401 864 401C900 401 936 401 972 401C1008 401 1044 401 1062 401L1080 401L1080 359L1062 362.3C1044 365.7 1008 372.3 972 373.7C936 375 900 371 864 367C828 363 792 359 756 357.7C720 356.3 684 357.7 648 359C612 360.3 576 361.7 540 361C504 360.3 468 357.7 432 357.7C396 357.7 360 360.3 324 364.3C288 368.3 252 373.7 216 373C180 372.3 144 365.7 108 366.3C72 367 36 375 18 379L0 383Z" fill="#ffffff"></path></svg>