<svg id="visual" viewBox="0 0 960 540" width="960" height="540" xmlns="http://www.w3.org/2000/svg"
    xmlns:xlink="http://www.w3.org/1999/xlink" version="1.1">
    <path
        d="M0 71L16 75.5C32 80 64 89 96 99C128 109 160 120 192 111C224 102 256 73 288 69.3C320 65.7 352 87.3 384 91.8C416 96.3 448 83.7 480 83.7C512 83.7 544 96.3 576 95.5C608 94.7 640 80.3 672 72.2C704 64 736 62 768 66.5C800 71 832 82 864 88.3C896 94.7 928 96.3 944 97.2L960 98L960 0L944 0C928 0 896 0 864 0C832 0 800 0 768 0C736 0 704 0 672 0C640 0 608 0 576 0C544 0 512 0 480 0C448 0 416 0 384 0C352 0 320 0 288 0C256 0 224 0 192 0C160 0 128 0 96 0C64 0 32 0 16 0L0 0Z"
        fill="#ffffff"></path>
    <path
        d="M0 125L16 133.2C32 141.3 64 157.7 96 165.8C128 174 160 174 192 163.2C224 152.3 256 130.7 288 135.2C320 139.7 352 170.3 384 179.3C416 188.3 448 175.7 480 175.7C512 175.7 544 188.3 576 187.5C608 186.7 640 172.3 672 161.5C704 150.7 736 143.3 768 147.8C800 152.3 832 168.7 864 174C896 179.3 928 173.7 944 170.8L960 168L960 96L944 95.2C928 94.3 896 92.7 864 86.3C832 80 800 69 768 64.5C736 60 704 62 672 70.2C640 78.3 608 92.7 576 93.5C544 94.3 512 81.7 480 81.7C448 81.7 416 94.3 384 89.8C352 85.3 320 63.7 288 67.3C256 71 224 100 192 109C160 118 128 107 96 97C64 87 32 78 16 73.5L0 69Z"
        fill="#d8f4cb"></path>
    <path
        d="M0 152L16 160.2C32 168.3 64 184.7 96 191.8C128 199 160 197 192 185.3C224 173.7 256 152.3 288 162.3C320 172.3 352 213.7 384 228.8C416 244 448 233 480 227.5C512 222 544 222 576 216.7C608 211.3 640 200.7 672 190.8C704 181 736 172 768 174.7C800 177.3 832 191.7 864 199.8C896 208 928 210 944 211L960 212L960 166L944 168.8C928 171.7 896 177.3 864 172C832 166.7 800 150.3 768 145.8C736 141.3 704 148.7 672 159.5C640 170.3 608 184.7 576 185.5C544 186.3 512 173.7 480 173.7C448 173.7 416 186.3 384 177.3C352 168.3 320 137.7 288 133.2C256 128.7 224 150.3 192 161.2C160 172 128 172 96 163.8C64 155.7 32 139.3 16 131.2L0 123Z"
        fill="#afe898"></path>
    <path
        d="M0 228L16 231.5C32 235 64 242 96 242C128 242 160 235 192 225.2C224 215.3 256 202.7 288 213.5C320 224.3 352 258.7 384 270.3C416 282 448 271 480 265.5C512 260 544 260 576 254.7C608 249.3 640 238.7 672 230.7C704 222.7 736 217.3 768 221.8C800 226.3 832 240.7 864 248.7C896 256.7 928 258.3 944 259.2L960 260L960 210L944 209C928 208 896 206 864 197.8C832 189.7 800 175.3 768 172.7C736 170 704 179 672 188.8C640 198.7 608 209.3 576 214.7C544 220 512 220 480 225.5C448 231 416 242 384 226.8C352 211.7 320 170.3 288 160.3C256 150.3 224 171.7 192 183.3C160 195 128 197 96 189.8C64 182.7 32 166.3 16 158.2L0 150Z"
        fill="#9ee383"></path>
    <path
        d="M0 357L16 354.3C32 351.7 64 346.3 96 345.5C128 344.7 160 348.3 192 354.7C224 361 256 370 288 381.7C320 393.3 352 407.7 384 405.8C416 404 448 386 480 385.2C512 384.3 544 400.7 576 406.2C608 411.7 640 406.3 672 400C704 393.7 736 386.3 768 379C800 371.7 832 364.3 864 374.2C896 384 928 411 944 424.5L960 438L960 258L944 257.2C928 256.3 896 254.7 864 246.7C832 238.7 800 224.3 768 219.8C736 215.3 704 220.7 672 228.7C640 236.7 608 247.3 576 252.7C544 258 512 258 480 263.5C448 269 416 280 384 268.3C352 256.7 320 222.3 288 211.5C256 200.7 224 213.3 192 223.2C160 233 128 240 96 240C64 240 32 233 16 229.5L0 226Z"
        fill="#afe898"></path>
    <path
        d="M0 390L16 390C32 390 64 390 96 390.8C128 391.7 160 393.3 192 403.2C224 413 256 431 288 439.2C320 447.3 352 445.7 384 441.2C416 436.7 448 429.3 480 430.2C512 431 544 440 576 447.2C608 454.3 640 459.7 672 459.7C704 459.7 736 454.3 768 448.2C800 442 832 435 864 438.7C896 442.3 928 456.7 944 463.8L960 471L960 436L944 422.5C928 409 896 382 864 372.2C832 362.3 800 369.7 768 377C736 384.3 704 391.7 672 398C640 404.3 608 409.7 576 404.2C544 398.7 512 382.3 480 383.2C448 384 416 402 384 403.8C352 405.7 320 391.3 288 379.7C256 368 224 359 192 352.7C160 346.3 128 342.7 96 343.5C64 344.3 32 349.7 16 352.3L0 355Z"
        fill="#d8f4cb"></path>
    <path
        d="M0 541L16 541C32 541 64 541 96 541C128 541 160 541 192 541C224 541 256 541 288 541C320 541 352 541 384 541C416 541 448 541 480 541C512 541 544 541 576 541C608 541 640 541 672 541C704 541 736 541 768 541C800 541 832 541 864 541C896 541 928 541 944 541L960 541L960 469L944 461.8C928 454.7 896 440.3 864 436.7C832 433 800 440 768 446.2C736 452.3 704 457.7 672 457.7C640 457.7 608 452.3 576 445.2C544 438 512 429 480 428.2C448 427.3 416 434.7 384 439.2C352 443.7 320 445.3 288 437.2C256 429 224 411 192 401.2C160 391.3 128 389.7 96 388.8C64 388 32 388 16 388L0 388Z"
        fill="#ffffff"></path>
</svg>