<svg id="visual" viewBox="0 0 900 600" width="900" height="600" xmlns="http://www.w3.org/2000/svg"
    xmlns:xlink="http://www.w3.org/1999/xlink" version="1.1">
    <path
        d="M0 73L13.7 68C27.3 63 54.7 53 82 53C109.3 53 136.7 63 163.8 67C191 71 218 69 245.2 74C272.3 79 299.7 91 327 88C354.3 85 381.7 67 409 67C436.3 67 463.7 85 491 91C518.3 97 545.7 91 573 87C600.3 83 627.7 81 654.8 79C682 77 709 75 736.2 75C763.3 75 790.7 77 818 82C845.3 87 872.7 95 886.3 99L900 103L900 47L886.3 44C872.7 41 845.3 35 818 32C790.7 29 763.3 29 736.2 30C709 31 682 33 654.8 34C627.7 35 600.3 35 573 35C545.7 35 518.3 35 491 33C463.7 31 436.3 27 409 27C381.7 27 354.3 31 327 30C299.7 29 272.3 23 245.2 24C218 25 191 33 163.8 33C136.7 33 109.3 25 82 24C54.7 23 27.3 29 13.7 32L0 35Z"
        fill="#fff4df"></path>
    <path
        d="M0 241L13.7 222C27.3 203 54.7 165 82 148C109.3 131 136.7 135 163.8 158C191 181 218 223 245.2 239C272.3 255 299.7 245 327 242C354.3 239 381.7 243 409 233C436.3 223 463.7 199 491 207C518.3 215 545.7 255 573 259C600.3 263 627.7 231 654.8 219C682 207 709 215 736.2 224C763.3 233 790.7 243 818 248C845.3 253 872.7 253 886.3 253L900 253L900 101L886.3 97C872.7 93 845.3 85 818 80C790.7 75 763.3 73 736.2 73C709 73 682 75 654.8 77C627.7 79 600.3 81 573 85C545.7 89 518.3 95 491 89C463.7 83 436.3 65 409 65C381.7 65 354.3 83 327 86C299.7 89 272.3 77 245.2 72C218 67 191 69 163.8 65C136.7 61 109.3 51 82 51C54.7 51 27.3 61 13.7 66L0 71Z"
        fill="#feeabf"></path>
    <path
        d="M0 355L13.7 353C27.3 351 54.7 347 82 337C109.3 327 136.7 311 163.8 311C191 311 218 327 245.2 338C272.3 349 299.7 355 327 352C354.3 349 381.7 337 409 327C436.3 317 463.7 309 491 319C518.3 329 545.7 357 573 353C600.3 349 627.7 313 654.8 307C682 301 709 325 736.2 336C763.3 347 790.7 345 818 340C845.3 335 872.7 327 886.3 323L900 319L900 251L886.3 251C872.7 251 845.3 251 818 246C790.7 241 763.3 231 736.2 222C709 213 682 205 654.8 217C627.7 229 600.3 261 573 257C545.7 253 518.3 213 491 205C463.7 197 436.3 221 409 231C381.7 241 354.3 237 327 240C299.7 243 272.3 253 245.2 237C218 221 191 179 163.8 156C136.7 133 109.3 129 82 146C54.7 163 27.3 201 13.7 220L0 239Z"
        fill="#fbe09f"></path>
    <path
        d="M0 385L13.7 384C27.3 383 54.7 381 82 369C109.3 357 136.7 335 163.8 336C191 337 218 361 245.2 373C272.3 385 299.7 385 327 378C354.3 371 381.7 357 409 346C436.3 335 463.7 327 491 338C518.3 349 545.7 379 573 381C600.3 383 627.7 357 654.8 353C682 349 709 367 736.2 376C763.3 385 790.7 385 818 383C845.3 381 872.7 377 886.3 375L900 373L900 317L886.3 321C872.7 325 845.3 333 818 338C790.7 343 763.3 345 736.2 334C709 323 682 299 654.8 305C627.7 311 600.3 347 573 351C545.7 355 518.3 327 491 317C463.7 307 436.3 315 409 325C381.7 335 354.3 347 327 350C299.7 353 272.3 347 245.2 336C218 325 191 309 163.8 309C136.7 309 109.3 325 82 335C54.7 345 27.3 349 13.7 351L0 353Z"
        fill="#fade99"></path>
    <path
        d="M0 415L13.7 416C27.3 417 54.7 419 82 407C109.3 395 136.7 369 163.8 371C191 373 218 403 245.2 415C272.3 427 299.7 421 327 410C354.3 399 381.7 383 409 376C436.3 369 463.7 371 491 383C518.3 395 545.7 417 573 419C600.3 421 627.7 403 654.8 398C682 393 709 401 736.2 408C763.3 415 790.7 421 818 423C845.3 425 872.7 423 886.3 422L900 421L900 371L886.3 373C872.7 375 845.3 379 818 381C790.7 383 763.3 383 736.2 374C709 365 682 347 654.8 351C627.7 355 600.3 381 573 379C545.7 377 518.3 347 491 336C463.7 325 436.3 333 409 344C381.7 355 354.3 369 327 376C299.7 383 272.3 383 245.2 371C218 359 191 335 163.8 334C136.7 333 109.3 355 82 367C54.7 379 27.3 381 13.7 382L0 383Z"
        fill="#fbe09f"></path>
    <path
        d="M0 469L13.7 472C27.3 475 54.7 481 82 480C109.3 479 136.7 471 163.8 473C191 475 218 487 245.2 494C272.3 501 299.7 503 327 496C354.3 489 381.7 473 409 468C436.3 463 463.7 469 491 475C518.3 481 545.7 487 573 488C600.3 489 627.7 485 654.8 477C682 469 709 457 736.2 463C763.3 469 790.7 493 818 499C845.3 505 872.7 493 886.3 487L900 481L900 419L886.3 420C872.7 421 845.3 423 818 421C790.7 419 763.3 413 736.2 406C709 399 682 391 654.8 396C627.7 401 600.3 419 573 417C545.7 415 518.3 393 491 381C463.7 369 436.3 367 409 374C381.7 381 354.3 397 327 408C299.7 419 272.3 425 245.2 413C218 401 191 371 163.8 369C136.7 367 109.3 393 82 405C54.7 417 27.3 415 13.7 414L0 413Z"
        fill="#feeabf"></path>
    <path
        d="M0 505L13.7 508C27.3 511 54.7 517 82 521C109.3 525 136.7 527 163.8 530C191 533 218 537 245.2 544C272.3 551 299.7 561 327 561C354.3 561 381.7 551 409 546C436.3 541 463.7 541 491 541C518.3 541 545.7 541 573 537C600.3 533 627.7 525 654.8 521C682 517 709 517 736.2 523C763.3 529 790.7 541 818 545C845.3 549 872.7 545 886.3 543L900 541L900 479L886.3 485C872.7 491 845.3 503 818 497C790.7 491 763.3 467 736.2 461C709 455 682 467 654.8 475C627.7 483 600.3 487 573 486C545.7 485 518.3 479 491 473C463.7 467 436.3 461 409 466C381.7 471 354.3 487 327 494C299.7 501 272.3 499 245.2 492C218 485 191 473 163.8 471C136.7 469 109.3 477 82 478C54.7 479 27.3 473 13.7 470L0 467Z"
        fill="#fff4df"></path>
</svg>