<svg id="visual" viewBox="0 0 900 600" width="900" height="600" xmlns="http://www.w3.org/2000/svg" xmlns:xlink="http://www.w3.org/1999/xlink" version="1.1"><rect x="0" y="0" width="900" height="600" fill="#ffffff"></rect><path d="M0 187L21.5 188.8C43 190.7 86 194.3 128.8 192.3C171.7 190.3 214.3 182.7 257.2 178.7C300 174.7 343 174.3 385.8 182.8C428.7 191.3 471.3 208.7 514.2 216.2C557 223.7 600 221.3 642.8 210.7C685.7 200 728.3 181 771.2 171.3C814 161.7 857 161.3 878.5 161.2L900 161L900 0L878.5 0C857 0 814 0 771.2 0C728.3 0 685.7 0 642.8 0C600 0 557 0 514.2 0C471.3 0 428.7 0 385.8 0C343 0 300 0 257.2 0C214.3 0 171.7 0 128.8 0C86 0 43 0 21.5 0L0 0Z" fill="#ffaea8"></path><path d="M0 162L21.5 160.7C43 159.3 86 156.7 128.8 154C171.7 151.3 214.3 148.7 257.2 143.7C300 138.7 343 131.3 385.8 141.2C428.7 151 471.3 178 514.2 189.8C557 201.7 600 198.3 642.8 191.7C685.7 185 728.3 175 771.2 173.3C814 171.7 857 178.3 878.5 181.7L900 185L900 0L878.5 0C857 0 814 0 771.2 0C728.3 0 685.7 0 642.8 0C600 0 557 0 514.2 0C471.3 0 428.7 0 385.8 0C343 0 300 0 257.2 0C214.3 0 171.7 0 128.8 0C86 0 43 0 21.5 0L0 0Z" fill="#ffaeb2"></path><path d="M0 97L21.5 107.2C43 117.3 86 137.7 128.8 146.2C171.7 154.7 214.3 151.3 257.2 147C300 142.7 343 137.3 385.8 133.8C428.7 130.3 471.3 128.7 514.2 126.5C557 124.3 600 121.7 642.8 127C685.7 132.3 728.3 145.7 771.2 141.5C814 137.3 857 115.7 878.5 104.8L900 94L900 0L878.5 0C857 0 814 0 771.2 0C728.3 0 685.7 0 642.8 0C600 0 557 0 514.2 0C471.3 0 428.7 0 385.8 0C343 0 300 0 257.2 0C214.3 0 171.7 0 128.8 0C86 0 43 0 21.5 0L0 0Z" fill="#ffafbc"></path><path d="M0 60L21.5 60C43 60 86 60 128.8 67.8C171.7 75.7 214.3 91.3 257.2 99C300 106.7 343 106.3 385.8 98.7C428.7 91 471.3 76 514.2 72.7C557 69.3 600 77.7 642.8 79.8C685.7 82 728.3 78 771.2 77.8C814 77.7 857 81.3 878.5 83.2L900 85L900 0L878.5 0C857 0 814 0 771.2 0C728.3 0 685.7 0 642.8 0C600 0 557 0 514.2 0C471.3 0 428.7 0 385.8 0C343 0 300 0 257.2 0C214.3 0 171.7 0 128.8 0C86 0 43 0 21.5 0L0 0Z" fill="#ffb0c7"></path><path d="M0 37L21.5 39C43 41 86 45 128.8 49.8C171.7 54.7 214.3 60.3 257.2 61C300 61.7 343 57.3 385.8 56.5C428.7 55.7 471.3 58.3 514.2 57.7C557 57 600 53 642.8 54.8C685.7 56.7 728.3 64.3 771.2 67.3C814 70.3 857 68.7 878.5 67.8L900 67L900 0L878.5 0C857 0 814 0 771.2 0C728.3 0 685.7 0 642.8 0C600 0 557 0 514.2 0C471.3 0 428.7 0 385.8 0C343 0 300 0 257.2 0C214.3 0 171.7 0 128.8 0C86 0 43 0 21.5 0L0 0Z" fill="#ffb2d2"></path></svg>