<svg id="visual" viewBox="0 0 900 900" width="900" height="900" xmlns="http://www.w3.org/2000/svg" xmlns:xlink="http://www.w3.org/1999/xlink" version="1.1"><path d="M0 55L13.7 50.5C27.3 46 54.7 37 82 38.5C109.3 40 136.7 52 163.8 52C191 52 218 40 245.2 38.5C272.3 37 299.7 46 327 47.5C354.3 49 381.7 43 409 43C436.3 43 463.7 49 491 52C518.3 55 545.7 55 573 55C600.3 55 627.7 55 654.8 53.5C682 52 709 49 736.2 47.5C763.3 46 790.7 46 818 50.5C845.3 55 872.7 64 886.3 68.5L900 73L900 0L886.3 0C872.7 0 845.3 0 818 0C790.7 0 763.3 0 736.2 0C709 0 682 0 654.8 0C627.7 0 600.3 0 573 0C545.7 0 518.3 0 491 0C463.7 0 436.3 0 409 0C381.7 0 354.3 0 327 0C299.7 0 272.3 0 245.2 0C218 0 191 0 163.8 0C136.7 0 109.3 0 82 0C54.7 0 27.3 0 13.7 0L0 0Z" fill="#ffffff"></path><path d="M0 109L13.7 101.5C27.3 94 54.7 79 82 79C109.3 79 136.7 94 163.8 100C191 106 218 103 245.2 110.5C272.3 118 299.7 136 327 131.5C354.3 127 381.7 100 409 100C436.3 100 463.7 127 491 136C518.3 145 545.7 136 573 130C600.3 124 627.7 121 654.8 118C682 115 709 112 736.2 112C763.3 112 790.7 115 818 122.5C845.3 130 872.7 142 886.3 148L900 154L900 71L886.3 66.5C872.7 62 845.3 53 818 48.5C790.7 44 763.3 44 736.2 45.5C709 47 682 50 654.8 51.5C627.7 53 600.3 53 573 53C545.7 53 518.3 53 491 50C463.7 47 436.3 41 409 41C381.7 41 354.3 47 327 45.5C299.7 44 272.3 35 245.2 36.5C218 38 191 50 163.8 50C136.7 50 109.3 38 82 36.5C54.7 35 27.3 44 13.7 48.5L0 53Z" fill="#fff4df"></path><path d="M0 361L13.7 332.5C27.3 304 54.7 247 82 221.5C109.3 196 136.7 202 163.8 236.5C191 271 218 334 245.2 358C272.3 382 299.7 367 327 362.5C354.3 358 381.7 364 409 349C436.3 334 463.7 298 491 310C518.3 322 545.7 382 573 388C600.3 394 627.7 346 654.8 328C682 310 709 322 736.2 335.5C763.3 349 790.7 364 818 371.5C845.3 379 872.7 379 886.3 379L900 379L900 152L886.3 146C872.7 140 845.3 128 818 120.5C790.7 113 763.3 110 736.2 110C709 110 682 113 654.8 116C627.7 119 600.3 122 573 128C545.7 134 518.3 143 491 134C463.7 125 436.3 98 409 98C381.7 98 354.3 125 327 129.5C299.7 134 272.3 116 245.2 108.5C218 101 191 104 163.8 98C136.7 92 109.3 77 82 77C54.7 77 27.3 92 13.7 99.5L0 107Z" fill="#feeabf"></path><path d="M0 532L13.7 529C27.3 526 54.7 520 82 505C109.3 490 136.7 466 163.8 466C191 466 218 490 245.2 506.5C272.3 523 299.7 532 327 527.5C354.3 523 381.7 505 409 490C436.3 475 463.7 463 491 478C518.3 493 545.7 535 573 529C600.3 523 627.7 469 654.8 460C682 451 709 487 736.2 503.5C763.3 520 790.7 517 818 509.5C845.3 502 872.7 490 886.3 484L900 478L900 377L886.3 377C872.7 377 845.3 377 818 369.5C790.7 362 763.3 347 736.2 333.5C709 320 682 308 654.8 326C627.7 344 600.3 392 573 386C545.7 380 518.3 320 491 308C463.7 296 436.3 332 409 347C381.7 362 354.3 356 327 360.5C299.7 365 272.3 380 245.2 356C218 332 191 269 163.8 234.5C136.7 200 109.3 194 82 219.5C54.7 245 27.3 302 13.7 330.5L0 359Z" fill="#fbe09f"></path><path d="M0 577L13.7 575.5C27.3 574 54.7 571 82 553C109.3 535 136.7 502 163.8 503.5C191 505 218 541 245.2 559C272.3 577 299.7 577 327 566.5C354.3 556 381.7 535 409 518.5C436.3 502 463.7 490 491 506.5C518.3 523 545.7 568 573 571C600.3 574 627.7 535 654.8 529C682 523 709 550 736.2 563.5C763.3 577 790.7 577 818 574C845.3 571 872.7 565 886.3 562L900 559L900 476L886.3 482C872.7 488 845.3 500 818 507.5C790.7 515 763.3 518 736.2 501.5C709 485 682 449 654.8 458C627.7 467 600.3 521 573 527C545.7 533 518.3 491 491 476C463.7 461 436.3 473 409 488C381.7 503 354.3 521 327 525.5C299.7 530 272.3 521 245.2 504.5C218 488 191 464 163.8 464C136.7 464 109.3 488 82 503C54.7 518 27.3 524 13.7 527L0 530Z" fill="#fade99"></path><path d="M0 622L13.7 623.5C27.3 625 54.7 628 82 610C109.3 592 136.7 553 163.8 556C191 559 218 604 245.2 622C272.3 640 299.7 631 327 614.5C354.3 598 381.7 574 409 563.5C436.3 553 463.7 556 491 574C518.3 592 545.7 625 573 628C600.3 631 627.7 604 654.8 596.5C682 589 709 601 736.2 611.5C763.3 622 790.7 631 818 634C845.3 637 872.7 634 886.3 632.5L900 631L900 557L886.3 560C872.7 563 845.3 569 818 572C790.7 575 763.3 575 736.2 561.5C709 548 682 521 654.8 527C627.7 533 600.3 572 573 569C545.7 566 518.3 521 491 504.5C463.7 488 436.3 500 409 516.5C381.7 533 354.3 554 327 564.5C299.7 575 272.3 575 245.2 557C218 539 191 503 163.8 501.5C136.7 500 109.3 533 82 551C54.7 569 27.3 572 13.7 573.5L0 575Z" fill="#fbe09f"></path><path d="M0 703L13.7 707.5C27.3 712 54.7 721 82 719.5C109.3 718 136.7 706 163.8 709C191 712 218 730 245.2 740.5C272.3 751 299.7 754 327 743.5C354.3 733 381.7 709 409 701.5C436.3 694 463.7 703 491 712C518.3 721 545.7 730 573 731.5C600.3 733 627.7 727 654.8 715C682 703 709 685 736.2 694C763.3 703 790.7 739 818 748C845.3 757 872.7 739 886.3 730L900 721L900 629L886.3 630.5C872.7 632 845.3 635 818 632C790.7 629 763.3 620 736.2 609.5C709 599 682 587 654.8 594.5C627.7 602 600.3 629 573 626C545.7 623 518.3 590 491 572C463.7 554 436.3 551 409 561.5C381.7 572 354.3 596 327 612.5C299.7 629 272.3 638 245.2 620C218 602 191 557 163.8 554C136.7 551 109.3 590 82 608C54.7 626 27.3 623 13.7 621.5L0 620Z" fill="#feeabf"></path><path d="M0 757L13.7 761.5C27.3 766 54.7 775 82 781C109.3 787 136.7 790 163.8 794.5C191 799 218 805 245.2 815.5C272.3 826 299.7 841 327 841C354.3 841 381.7 826 409 818.5C436.3 811 463.7 811 491 811C518.3 811 545.7 811 573 805C600.3 799 627.7 787 654.8 781C682 775 709 775 736.2 784C763.3 793 790.7 811 818 817C845.3 823 872.7 817 886.3 814L900 811L900 719L886.3 728C872.7 737 845.3 755 818 746C790.7 737 763.3 701 736.2 692C709 683 682 701 654.8 713C627.7 725 600.3 731 573 729.5C545.7 728 518.3 719 491 710C463.7 701 436.3 692 409 699.5C381.7 707 354.3 731 327 741.5C299.7 752 272.3 749 245.2 738.5C218 728 191 710 163.8 707C136.7 704 109.3 716 82 717.5C54.7 719 27.3 710 13.7 705.5L0 701Z" fill="#fff4df"></path><path d="M0 901L13.7 901C27.3 901 54.7 901 82 901C109.3 901 136.7 901 163.8 901C191 901 218 901 245.2 901C272.3 901 299.7 901 327 901C354.3 901 381.7 901 409 901C436.3 901 463.7 901 491 901C518.3 901 545.7 901 573 901C600.3 901 627.7 901 654.8 901C682 901 709 901 736.2 901C763.3 901 790.7 901 818 901C845.3 901 872.7 901 886.3 901L900 901L900 809L886.3 812C872.7 815 845.3 821 818 815C790.7 809 763.3 791 736.2 782C709 773 682 773 654.8 779C627.7 785 600.3 797 573 803C545.7 809 518.3 809 491 809C463.7 809 436.3 809 409 816.5C381.7 824 354.3 839 327 839C299.7 839 272.3 824 245.2 813.5C218 803 191 797 163.8 792.5C136.7 788 109.3 785 82 779C54.7 773 27.3 764 13.7 759.5L0 755Z" fill="#ffffff"></path></svg>