<svg id="visual" viewBox="0 0 900 400" width="900" height="400" xmlns="http://www.w3.org/2000/svg"
    xmlns:xlink="http://www.w3.org/1999/xlink" version="1.1">

    <path
        d="M0 77L18.8 75.7C37.7 74.3 75.3 71.7 112.8 72.3C150.3 73 187.7 77 225.2 84.3C262.7 91.7 300.3 102.3 337.8 105C375.3 107.7 412.7 102.3 450.2 99.7C487.7 97 525.3 97 562.8 99C600.3 101 637.7 105 675.2 111C712.7 117 750.3 125 787.8 127C825.3 129 862.7 125 881.3 123L900 121L900 75L881.3 73.7C862.7 72.3 825.3 69.7 787.8 71C750.3 72.3 712.7 77.7 675.2 74.3C637.7 71 600.3 59 562.8 53C525.3 47 487.7 47 450.2 50.3C412.7 53.7 375.3 60.3 337.8 60.3C300.3 60.3 262.7 53.7 225.2 49C187.7 44.3 150.3 41.7 112.8 38.3C75.3 35 37.7 31 18.8 29L0 27Z"
        fill="#e0f0ff"></path>
    <path
        d="M0 117L18.8 113.7C37.7 110.3 75.3 103.7 112.8 103C150.3 102.3 187.7 107.7 225.2 113.7C262.7 119.7 300.3 126.3 337.8 126.3C375.3 126.3 412.7 119.7 450.2 118.3C487.7 117 525.3 121 562.8 123C600.3 125 637.7 125 675.2 131C712.7 137 750.3 149 787.8 151.7C825.3 154.3 862.7 147.7 881.3 144.3L900 141L900 119L881.3 121C862.7 123 825.3 127 787.8 125C750.3 123 712.7 115 675.2 109C637.7 103 600.3 99 562.8 97C525.3 95 487.7 95 450.2 97.7C412.7 100.3 375.3 105.7 337.8 103C300.3 100.3 262.7 89.7 225.2 82.3C187.7 75 150.3 71 112.8 70.3C75.3 69.7 37.7 72.3 18.8 73.7L0 75Z"
        fill="#c0e2ff"></path>
    <path
        d="M0 161L18.8 155C37.7 149 75.3 137 112.8 133C150.3 129 187.7 133 225.2 139.7C262.7 146.3 300.3 155.7 337.8 159C375.3 162.3 412.7 159.7 450.2 157C487.7 154.3 525.3 151.7 562.8 153.7C600.3 155.7 637.7 162.3 675.2 170.3C712.7 178.3 750.3 187.7 787.8 188.3C825.3 189 862.7 181 881.3 177L900 173L900 139L881.3 142.3C862.7 145.7 825.3 152.3 787.8 149.7C750.3 147 712.7 135 675.2 129C637.7 123 600.3 123 562.8 121C525.3 119 487.7 115 450.2 116.3C412.7 117.7 375.3 124.3 337.8 124.3C300.3 124.3 262.7 117.7 225.2 111.7C187.7 105.7 150.3 100.3 112.8 101C75.3 101.7 37.7 108.3 18.8 111.7L0 115Z"
        fill="#b2dcff"></path>
    <path
        d="M0 257L18.8 258.3C37.7 259.7 75.3 262.3 112.8 259C150.3 255.7 187.7 246.3 225.2 255.7C262.7 265 300.3 293 337.8 291.7C375.3 290.3 412.7 259.7 450.2 247.7C487.7 235.7 525.3 242.3 562.8 252.3C600.3 262.3 637.7 275.7 675.2 279.7C712.7 283.7 750.3 278.3 787.8 279C825.3 279.7 862.7 286.3 881.3 289.7L900 293L900 171L881.3 175C862.7 179 825.3 187 787.8 186.3C750.3 185.7 712.7 176.3 675.2 168.3C637.7 160.3 600.3 153.7 562.8 151.7C525.3 149.7 487.7 152.3 450.2 155C412.7 157.7 375.3 160.3 337.8 157C300.3 153.7 262.7 144.3 225.2 137.7C187.7 131 150.3 127 112.8 131C75.3 135 37.7 147 18.8 153L0 159Z"
        fill="#c0e2ff"></path>
    <path
        d="M0 353L18.8 354.3C37.7 355.7 75.3 358.3 112.8 357C150.3 355.7 187.7 350.3 225.2 352.3C262.7 354.3 300.3 363.7 337.8 364.3C375.3 365 412.7 357 450.2 351.7C487.7 346.3 525.3 343.7 562.8 343C600.3 342.3 637.7 343.7 675.2 347C712.7 350.3 750.3 355.7 787.8 356.3C825.3 357 862.7 353 881.3 351L900 349L900 291L881.3 287.7C862.7 284.3 825.3 277.7 787.8 277C750.3 276.3 712.7 281.7 675.2 277.7C637.7 273.7 600.3 260.3 562.8 250.3C525.3 240.3 487.7 233.7 450.2 245.7C412.7 257.7 375.3 288.3 337.8 289.7C300.3 291 262.7 263 225.2 253.7C187.7 244.3 150.3 253.7 112.8 257C75.3 260.3 37.7 257.7 18.8 256.3L0 255Z"
        fill="#e0f0ff"></path>

</svg>