<svg id="visual" viewBox="0 0 900 600" width="900" height="600" xmlns="http://www.w3.org/2000/svg" xmlns:xlink="http://www.w3.org/1999/xlink" version="1.1"><path d="M0 85L13.7 78C27.3 71 54.7 57 82 57C109.3 57 136.7 71 163.8 70C191 69 218 53 245.2 56C272.3 59 299.7 81 327 91C354.3 101 381.7 99 409 95C436.3 91 463.7 85 491 85C518.3 85 545.7 91 573 84C600.3 77 627.7 57 654.8 53C682 49 709 61 736.2 63C763.3 65 790.7 57 818 55C845.3 53 872.7 57 886.3 59L900 61L900 0L886.3 0C872.7 0 845.3 0 818 0C790.7 0 763.3 0 736.2 0C709 0 682 0 654.8 0C627.7 0 600.3 0 573 0C545.7 0 518.3 0 491 0C463.7 0 436.3 0 409 0C381.7 0 354.3 0 327 0C299.7 0 272.3 0 245.2 0C218 0 191 0 163.8 0C136.7 0 109.3 0 82 0C54.7 0 27.3 0 13.7 0L0 0Z" fill="#ffffff"></path><path d="M0 205L13.7 195C27.3 185 54.7 165 82 159C109.3 153 136.7 161 163.8 165C191 169 218 169 245.2 175C272.3 181 299.7 193 327 194C354.3 195 381.7 185 409 177C436.3 169 463.7 163 491 162C518.3 161 545.7 165 573 161C600.3 157 627.7 145 654.8 141C682 137 709 141 736.2 137C763.3 133 790.7 121 818 125C845.3 129 872.7 149 886.3 159L900 169L900 59L886.3 57C872.7 55 845.3 51 818 53C790.7 55 763.3 63 736.2 61C709 59 682 47 654.8 51C627.7 55 600.3 75 573 82C545.7 89 518.3 83 491 83C463.7 83 436.3 89 409 93C381.7 97 354.3 99 327 89C299.7 79 272.3 57 245.2 54C218 51 191 67 163.8 68C136.7 69 109.3 55 82 55C54.7 55 27.3 69 13.7 76L0 83Z" fill="#ffecf0"></path><path d="M0 439L13.7 424C27.3 409 54.7 379 82 363C109.3 347 136.7 345 163.8 342C191 339 218 335 245.2 340C272.3 345 299.7 359 327 359C354.3 359 381.7 345 409 332C436.3 319 463.7 307 491 309C518.3 311 545.7 327 573 316C600.3 305 627.7 267 654.8 255C682 243 709 257 736.2 251C763.3 245 790.7 219 818 229C845.3 239 872.7 285 886.3 308L900 331L900 167L886.3 157C872.7 147 845.3 127 818 123C790.7 119 763.3 131 736.2 135C709 139 682 135 654.8 139C627.7 143 600.3 155 573 159C545.7 163 518.3 159 491 160C463.7 161 436.3 167 409 175C381.7 183 354.3 193 327 192C299.7 191 272.3 179 245.2 173C218 167 191 167 163.8 163C136.7 159 109.3 151 82 157C54.7 163 27.3 183 13.7 193L0 203Z" fill="#ffd8e2"></path><path d="M0 487L13.7 488C27.3 489 54.7 491 82 484C109.3 477 136.7 461 163.8 459C191 457 218 469 245.2 475C272.3 481 299.7 481 327 479C354.3 477 381.7 473 409 453C436.3 433 463.7 397 491 388C518.3 379 545.7 397 573 392C600.3 387 627.7 359 654.8 348C682 337 709 343 736.2 348C763.3 353 790.7 357 818 375C845.3 393 872.7 425 886.3 441L900 457L900 329L886.3 306C872.7 283 845.3 237 818 227C790.7 217 763.3 243 736.2 249C709 255 682 241 654.8 253C627.7 265 600.3 303 573 314C545.7 325 518.3 309 491 307C463.7 305 436.3 317 409 330C381.7 343 354.3 357 327 357C299.7 357 272.3 343 245.2 338C218 333 191 337 163.8 340C136.7 343 109.3 345 82 361C54.7 377 27.3 407 13.7 422L0 437Z" fill="#ffc5d4"></path><path d="M0 601L13.7 601C27.3 601 54.7 601 82 601C109.3 601 136.7 601 163.8 601C191 601 218 601 245.2 601C272.3 601 299.7 601 327 601C354.3 601 381.7 601 409 601C436.3 601 463.7 601 491 601C518.3 601 545.7 601 573 601C600.3 601 627.7 601 654.8 601C682 601 709 601 736.2 601C763.3 601 790.7 601 818 601C845.3 601 872.7 601 886.3 601L900 601L900 455L886.3 439C872.7 423 845.3 391 818 373C790.7 355 763.3 351 736.2 346C709 341 682 335 654.8 346C627.7 357 600.3 385 573 390C545.7 395 518.3 377 491 386C463.7 395 436.3 431 409 451C381.7 471 354.3 475 327 477C299.7 479 272.3 479 245.2 473C218 467 191 455 163.8 457C136.7 459 109.3 475 82 482C54.7 489 27.3 487 13.7 486L0 485Z" fill="#ffb1c6"></path></svg>